<svg width="110" height="110" viewBox="0 0 110 110" fill="none" xmlns="http://www.w3.org/2000/svg">
<rect width="110" height="110" fill="#738BA2"/>
<path opacity="0.7" fill-rule="evenodd" clip-rule="evenodd" d="M63.0057 45.7142C63.1224 45.739 63.2402 45.774 63.3591 45.8195C63.4778 45.8651 63.5852 45.9251 63.6812 45.9994C63.777 46.0739 63.8542 46.1648 63.9124 46.2723C63.9709 46.38 64 46.5081 64 46.6568C64 46.8514 63.9604 47.0157 63.8813 47.1502C63.8019 47.2845 63.6988 47.3931 63.5716 47.4758C63.4445 47.5585 63.3018 47.6185 63.1433 47.6557C62.9848 47.693 62.8263 47.7114 62.668 47.7114C62.4135 47.7114 62.0972 47.6595 61.8711 47.5393C61.6239 47.4078 61.5355 47.3322 61.4499 47.2357C61.4103 47.191 61.3997 47.1295 61.441 47.0863L61.742 46.6739C61.7816 46.6324 61.8487 46.5925 61.8965 46.6249C62.0032 46.6974 62.1301 46.7875 62.2297 46.8367C62.4335 46.9377 62.6905 46.9792 62.9019 46.8769C62.9832 46.8378 63.0221 46.7605 63.0177 46.6983C63.0113 46.6035 62.9681 46.5474 62.8681 46.5018C62.7681 46.4565 62.6118 46.4088 62.3991 46.3591C62.2906 46.3345 62.1821 46.3014 62.0739 46.26C61.9654 46.2185 61.8685 46.1628 61.7831 46.0924C61.6975 46.0223 61.6277 45.9353 61.5735 45.8318C61.5192 45.7286 61.4921 45.6045 61.4921 45.4598C61.4921 45.2737 61.5317 45.1154 61.6111 44.9852C61.6902 44.8548 61.7924 44.7486 61.9176 44.6657C62.0425 44.583 62.1812 44.5221 62.3333 44.4828C62.4855 44.4435 62.6367 44.4239 62.7867 44.4239C63.0204 44.4239 63.2227 44.4547 63.4427 44.5441C63.6306 44.6204 63.723 44.6702 63.86 44.7784C63.908 44.8164 63.9124 44.8864 63.8697 44.9302L63.5579 45.338C63.5181 45.3879 63.4567 45.3847 63.4085 45.3579C63.3294 45.3143 63.2778 45.2849 63.2066 45.2491C63.134 45.2124 63.0562 45.1847 62.9757 45.1701C62.8196 45.1416 62.6798 45.1459 62.5576 45.2018C62.4762 45.2392 62.4366 45.313 62.4366 45.4039C62.4366 45.4907 62.4813 45.5529 62.5711 45.59C62.6607 45.6272 62.8056 45.6686 63.0057 45.7142ZM60.0621 48.0775C59.9754 48.2889 59.8981 48.4111 59.8132 48.5325C59.5155 48.9585 58.958 49.0615 58.5123 48.9684C58.3034 48.9095 58.136 48.841 58.0502 48.7443C58.0106 48.6998 58.0002 48.6383 58.0413 48.5951L58.3043 48.1391C58.3438 48.0976 58.411 48.0575 58.4585 48.0899C58.5068 48.1227 58.6177 48.1717 58.7006 48.1717C58.8251 48.1648 58.9743 48.1589 59.1241 47.8249C59.1883 47.6615 59.1861 47.5518 59.0914 47.3113L57.9593 44.6657C57.9302 44.5979 57.9815 44.523 58.0571 44.523H58.9605C59.0058 44.523 59.0463 44.551 59.0609 44.5929L59.7305 46.5081H59.7494L60.3458 44.5962C60.3593 44.5528 60.4005 44.523 60.4471 44.523H61.2369C61.3112 44.523 61.3623 44.5953 61.3359 44.6629L60.0621 48.0775ZM57.2722 47.4758C57.145 47.5585 57.0021 47.6185 56.8438 47.6557C56.6853 47.693 56.5268 47.7114 56.3684 47.7114C56.1141 47.7114 55.7977 47.6595 55.5717 47.5393C55.3243 47.4078 55.236 47.3322 55.1504 47.2357C55.1109 47.191 55.1002 47.1295 55.1413 47.0863L55.4425 46.6739C55.4821 46.6324 55.5492 46.5925 55.5968 46.6249C55.7037 46.6974 55.8306 46.7875 55.93 46.8367C56.1341 46.9377 56.3908 46.9792 56.6024 46.8769C56.6838 46.8378 56.7227 46.7605 56.7182 46.6983C56.7118 46.6035 56.6687 46.5474 56.5686 46.5018C56.4686 46.4565 56.3121 46.4088 56.0996 46.3591C55.9911 46.3345 55.8827 46.3014 55.7744 46.26C55.6659 46.2185 55.569 46.1628 55.4836 46.0924C55.3981 46.0223 55.3283 45.9353 55.274 45.8318C55.2198 45.7286 55.1927 45.6045 55.1927 45.4598C55.1927 45.2737 55.2322 45.1154 55.3116 44.9852C55.3907 44.8548 55.493 44.7486 55.6181 44.6657C55.7431 44.583 55.8815 44.5221 56.0338 44.4828C56.1861 44.4435 56.3372 44.4239 56.4873 44.4239C56.7207 44.4239 56.9232 44.4547 57.1433 44.5441C57.3311 44.6204 57.4236 44.6702 57.5605 44.7784C57.6083 44.8164 57.613 44.8864 57.5703 44.9302L57.2584 45.338C57.2184 45.3879 57.1573 45.3847 57.109 45.3579C57.0299 45.3143 56.9781 45.2849 56.9072 45.2491C56.8345 45.2124 56.7567 45.1847 56.6762 45.1701C56.5202 45.1416 56.3804 45.1459 56.2581 45.2018C56.1767 45.2392 56.1372 45.313 56.1372 45.4039C56.1372 45.4907 56.1819 45.5529 56.2714 45.59C56.3612 45.6272 56.5062 45.6686 56.7062 45.7142C56.8229 45.739 56.9408 45.774 57.0595 45.8195C57.1784 45.8651 57.2857 45.9251 57.3818 45.9994C57.4776 46.0739 57.5545 46.1648 57.613 46.2723C57.6714 46.38 57.7005 46.5081 57.7005 46.6568C57.7005 46.8514 57.661 47.0157 57.5818 47.1502C57.5025 47.2845 57.3993 47.3931 57.2722 47.4758ZM54.4738 47.6123H53.7476C53.6889 47.6123 53.6415 47.566 53.6415 47.5093V47.2834H53.6229C53.5435 47.4117 53.4237 47.511 53.2632 47.5812C53.1027 47.6515 52.9286 47.6867 52.741 47.6867C52.6159 47.6867 52.4865 47.6701 52.3531 47.6371C52.2198 47.604 52.0977 47.5503 51.9873 47.4758C51.8768 47.4013 51.7861 47.302 51.7152 47.1781C51.6443 47.0539 51.6089 46.901 51.6089 46.719C51.6089 46.4958 51.6705 46.3157 51.7934 46.1792C51.9163 46.0428 52.0748 45.9374 52.2689 45.8629C52.4627 45.7887 52.6783 45.739 52.916 45.7142C53.1536 45.6893 53.385 45.6768 53.6102 45.6768V45.6272C53.6102 45.4743 53.5559 45.3616 53.4477 45.289C53.3392 45.2169 53.2058 45.1806 53.0474 45.1806C52.9013 45.1806 52.7606 45.2115 52.6252 45.2737C52.5232 45.3203 52.3816 45.3987 52.302 45.4596C52.2584 45.4929 52.1962 45.4881 52.1589 45.4482L51.8545 45.0485C51.8141 45.0053 51.8185 44.9382 51.8641 44.9C52.0286 44.762 52.1188 44.6797 52.4 44.5541C52.6361 44.4485 52.8931 44.4239 53.1474 44.4239C53.4101 44.4239 53.6322 44.4558 53.8136 44.52C53.995 44.5841 54.1419 44.6834 54.2544 44.8177C54.3671 44.9522 54.4493 45.1217 54.5016 45.3264C54.5536 45.5311 54.5796 45.774 54.5796 46.0553V47.5093C54.5796 47.566 54.5322 47.6123 54.4738 47.6123ZM53.6415 46.3325C53.6415 46.2958 53.6109 46.266 53.5733 46.266H53.5102C53.3977 46.266 53.2839 46.2714 53.1694 46.2816C53.0547 46.2919 52.9524 46.3118 52.8629 46.3405C52.7733 46.3697 52.6992 46.4118 52.641 46.4677C52.5825 46.5236 52.5534 46.597 52.5534 46.6879C52.5534 46.746 52.5668 46.7955 52.5941 46.8369C52.621 46.8781 52.6555 46.9114 52.6972 46.936C52.7388 46.9608 52.7868 46.9785 52.8411 46.9889C52.8951 46.9991 52.9473 47.0042 52.9973 47.0042C53.2058 47.0042 53.3652 46.9475 53.4757 46.8337C53.5862 46.7201 53.6415 46.5659 53.6415 46.3716V46.3325ZM50.6368 47.2579C50.4784 47.4007 50.295 47.5114 50.0865 47.59C49.8779 47.6684 49.655 47.7077 49.4171 47.7077C49.1837 47.7077 48.9617 47.6684 48.7512 47.59C48.5407 47.5114 48.3573 47.4007 48.2008 47.2579C48.0445 47.1152 47.9205 46.9416 47.8287 46.7369C47.7369 46.5323 47.6911 46.3038 47.6911 46.0514C47.6911 45.7992 47.7369 45.5719 47.8287 45.3691C47.9205 45.1666 48.0445 44.995 48.2008 44.8542C48.3573 44.7136 48.5407 44.6061 48.7512 44.5316C48.9617 44.4573 49.1837 44.42 49.4171 44.42C49.655 44.42 49.8779 44.4573 50.0865 44.5316C50.295 44.6061 50.4784 44.7136 50.6368 44.8542C50.7951 44.995 50.9203 45.1666 51.0121 45.3691C51.1037 45.5719 51.1497 45.7992 51.1497 46.0514C51.1497 46.3038 51.1037 46.5323 51.0121 46.7369C50.9203 46.9416 50.7951 47.1152 50.6368 47.2579ZM49.4203 45.2614C48.9694 45.2614 48.604 45.6168 48.604 46.0553C48.604 46.4172 48.8547 46.719 49.1951 46.8147C49.2651 46.8367 49.3396 46.8516 49.4236 46.8516C49.5256 46.8516 49.6148 46.8319 49.6961 46.7993C50.0107 46.689 50.2367 46.399 50.2367 46.0553C50.2367 45.6168 49.8713 45.2614 49.4203 45.2614ZM46.4983 44.1948C46.2557 44.1499 46.0575 43.9569 46.0114 43.7209C45.929 43.2962 46.3046 42.9308 46.7412 43.0112C46.9837 43.0559 47.1822 43.2487 47.2285 43.4847C47.3118 43.9096 46.9355 44.2758 46.4983 44.1948ZM46.2033 44.523H47.0171C47.0755 44.523 47.1231 44.5692 47.1231 44.6262V47.5093C47.1231 47.566 47.0755 47.6123 47.0171 47.6123H46.2033C46.1448 47.6123 46.0972 47.566 46.0972 47.5093V44.6262C46.0972 44.5692 46.1448 44.523 46.2033 44.523Z" fill="black"/>
<g opacity="0.7">
<path d="M41.1504 60.9278C41.7677 61.0882 42.219 61.393 42.5043 61.8422C42.7896 62.2914 42.9322 62.7968 42.9322 63.3583C42.9322 65.6791 41.4876 66.8396 38.5984 66.8396H35.1126H34V55.1604H38.116C39.5735 55.1604 40.7017 55.4358 41.5006 55.9866C42.2994 56.5321 42.6988 57.3422 42.6988 58.4171C42.6988 58.9893 42.5769 59.4973 42.3331 59.9412C42.0893 60.385 41.6951 60.7139 41.1504 60.9278ZM36.9022 57.5829V60.0134H38.0926C38.7203 60.0134 39.1612 59.9225 39.4153 59.7406C39.6695 59.5588 39.7966 59.2647 39.7966 58.8583C39.7966 58.4037 39.6643 58.0775 39.3998 57.8797C39.1352 57.6818 38.7073 57.5829 38.116 57.5829H36.9022ZM38.5984 64.4251C39.0963 64.4251 39.4594 64.3209 39.6877 64.1123C39.9211 63.8984 40.0378 63.6283 40.0378 63.3021C40.0378 62.4465 39.5969 62.0187 38.7151 62.0187H36.9022V64.4251H38.5984Z" fill="black"/>
<path d="M54.0508 61.2166C54.0508 62.3877 53.8381 63.4118 53.4127 64.2888C52.9874 65.1604 52.3961 65.8316 51.6388 66.3021C50.8814 66.7674 50.0178 67 49.0478 67C48.0622 67 47.1882 66.7674 46.4257 66.3021C45.6684 65.8316 45.0771 65.1604 44.6517 64.2888C44.2316 63.4118 44.0215 62.3877 44.0215 61.2166V60.7914C44.0215 59.6203 44.2316 58.5989 44.6517 57.7273C45.0771 56.8503 45.6684 56.1765 46.4257 55.7059C47.183 55.2353 48.0519 55 49.0322 55C50.0022 55 50.8659 55.2353 51.6232 55.7059C52.3857 56.1765 52.9796 56.8503 53.405 57.7273C53.8355 58.5989 54.0508 59.6203 54.0508 60.7914V61.2166ZM51.0863 60.7754C51.0863 59.6952 50.9074 58.8717 50.5495 58.3048C50.1967 57.7326 49.691 57.4465 49.0322 57.4465C47.668 57.4465 46.9859 58.5561 46.9859 60.7754V61.2166C46.9859 62.2968 47.1571 63.1257 47.4994 63.7032C47.847 64.2754 48.3631 64.5615 49.0478 64.5615C49.7014 64.5615 50.2045 64.2701 50.5572 63.6872C50.91 63.1043 51.0863 62.2807 51.0863 61.2166V60.7754Z" fill="black"/>
<path d="M65.0526 61.2166C65.0526 62.3877 64.8399 63.4118 64.4146 64.2888C63.9893 65.1604 63.3979 65.8316 62.6406 66.3021C61.8833 66.7674 61.0196 67 60.0496 67C59.0641 67 58.1901 66.7674 57.4276 66.3021C56.6702 65.8316 56.0789 65.1604 55.6536 64.2888C55.2334 63.4118 55.0233 62.3877 55.0233 61.2166V60.7914C55.0233 59.6203 55.2334 58.5989 55.6536 57.7273C56.0789 56.8503 56.6702 56.1765 57.4276 55.7059C58.1849 55.2353 59.0537 55 60.0341 55C61.0041 55 61.8677 55.2353 62.625 55.7059C63.3876 56.1765 63.9815 56.8503 64.4068 57.7273C64.8373 58.5989 65.0526 59.6203 65.0526 60.7914V61.2166ZM62.0882 60.7754C62.0882 59.6952 61.9092 58.8717 61.5513 58.3048C61.1986 57.7326 60.6928 57.4465 60.0341 57.4465C58.6699 57.4465 57.9878 58.5561 57.9878 60.7754V61.2166C57.9878 62.2968 58.1589 63.1257 58.5013 63.7032C58.8488 64.2754 59.365 64.5615 60.0496 64.5615C60.7032 64.5615 61.2064 64.2701 61.5591 63.6872C61.9118 63.1043 62.0882 62.2807 62.0882 61.2166V60.7754Z" fill="black"/>
<path d="M72.2731 60.3503L75.9533 66.8396H72.5143L70.3201 62.7326L69.2386 63.9599V66.8396H66.3364V55.1604H69.2386V60.1578L70.1567 58.6337L72.4053 55.1604H76L72.2731 60.3503Z" fill="black"/>
</g>
</svg>
